PathFileType	4	(X/Y/Z)	TVC_36_BWA_06_walk_RCNL2025.trc
DataRate	CameraRate	NumFrames	NumMarkers	Units	OrigDataRate	OrigDataStartFrame	OrigNumFrames
100	100	9	27	mm	100	358	714
Frame#	Time	R_Shoulder			L_Shoulder			C7			J_Notch			R_Elbow			L_Elbow			R_Wrist			L_Wrist			R_Asis			L_Asis			R_Psis			L_Psis			Sacral			Thoracic			Sternum			R_Thigh_Lateral			R_Knee_Lateral			R_Shank_Lateral			R_Ankle_Lateral			R_Heel			R_Toe			L_Thigh_Lateral			L_Knee_Lateral			L_Shank_Lateral			L_Ankle_Lateral			L_Heel			L_Toe		
		X1	Y1	Z1	X2	Y2	Z2	X3	Y3	Z3	X4	Y4	Z4	X5	Y5	Z5	X6	Y6	Z6	X7	Y7	Z7	X8	Y8	Z8	X9	Y9	Z9	X10	Y10	Z10	X11	Y11	Z11	X12	Y12	Z12	X13	Y13	Z13	X14	Y14	Z14	X15	Y15	Z15	X16	Y16	Z16	X17	Y17	Z17	X18	Y18	Z18	X19	Y19	Z19	X20	Y20	Z20	X21	Y21	Z21	X22	Y22	Z22	X23	Y23	Z23	X24	Y24	Z24	X25	Y25	Z25	X26	Y26	Z26	X27	Y27	Z27
358	3.57000000	477.226227	1378.298096	603.264709	376.255402	1358.912842	270.550629	395.327972	1421.854248	446.339203	547.920044	1303.094238	411.984772	464.637756	1082.076904	694.307861	351.464874	1068.201782	164.413406	608.638123	911.395111	659.155762	542.196350	987.612854	227.115234	555.313538	888.608704	541.849060	506.634155	896.620178	286.046875	367.215912	906.266479	486.728943	352.275360	900.552063	403.916290	359.745636	903.409271	445.322617	366.642578	1128.609863	451.002411	592.041870	1155.127197	390.749573	477.602783	617.163696	607.866699	451.984314	439.714539	522.059509	347.600677	259.870697	571.045471	290.952332	71.969398	495.990356	245.118591	64.579254	444.867676	412.305481	40.387653	470.297577	547.043396	669.423340	189.707092	619.067322	483.496002	243.069458	577.949097	283.162415	192.591431	631.422729	74.203239	243.558350	584.763123	57.215385	284.392303	757.951721	60.484097	285.879608
359	3.58000000	480.948303	1378.370972	601.360901	380.319336	1358.249390	268.667206	399.267914	1421.636597	444.361450	552.138550	1303.144653	410.219604	467.865906	1081.791382	692.671570	355.775391	1067.088745	163.485519	613.929565	913.140411	656.383606	546.591187	986.581055	226.068161	559.352234	888.175171	540.411377	511.215729	896.151245	284.457031	371.216614	906.132812	484.747437	356.522064	900.627380	401.881561	363.869339	903.380096	443.314499	371.042755	1128.389404	449.148895	596.547852	1155.146118	389.158630	480.876923	616.821899	606.443481	454.597900	439.361725	521.082581	349.300842	260.193817	570.490417	291.250824	72.617142	495.957855	245.361191	65.399796	444.834381	412.366608	40.356483	470.134644	550.275757	667.747375	188.671371	621.288086	481.902649	243.065491	580.140869	281.568237	192.854248	633.313049	72.838379	244.330658	586.654602	55.880322	285.171936	759.859619	58.919338	286.902863
360	3.59000000	484.718475	1378.556396	599.394409	384.423004	1357.695679	266.729614	403.266907	1421.535522	442.325928	556.408081	1303.312988	408.389435	471.275452	1081.690430	691.102966	360.085236	1066.069336	162.552414	619.299927	915.071655	653.728851	550.959686	985.556061	225.019409	563.466187	887.850464	538.928162	515.853271	895.812378	282.828857	375.315491	906.101318	482.760315	360.850708	900.803345	399.838928	368.083099	903.452332	441.299622	375.499115	1128.284912	447.264130	601.108887	1155.288940	387.492096	484.338959	616.569275	604.989929	457.434814	439.086060	520.105591	351.136993	260.628326	569.914124	291.620117	73.423561	495.914337	245.670639	66.406715	444.789459	412.463745	40.339367	469.983124	553.685547	666.270569	187.571259	623.659790	480.492065	242.949554	582.365601	280.156494	193.009018	635.091309	71.625877	245.022430	588.412781	54.705444	285.868073	761.626953	57.508457	287.816498
361	3.60000000	488.531982	1378.865967	597.365540	388.568024	1357.275757	264.737488	407.321991	1421.562988	440.232758	560.723328	1303.608276	406.496063	474.881470	1081.803711	689.598206	364.399323	1065.176758	161.599548	624.780487	917.206970	651.216797	555.304413	984.576935	223.970917	567.650696	887.661865	537.403137	520.537231	895.622498	281.165283	379.509613	906.189453	480.779205	365.256470	901.091187	397.799438	372.383041	903.640320	439.289322	380.003082	1128.310303	445.350464	605.716309	1155.564819	385.751099	488.004700	616.434143	603.524231	460.533813	438.904907	519.152466	353.131622	261.205719	569.330994	292.071869	74.422768	495.867889	246.065033	67.646454	444.737640	412.605652	40.335464	469.844238	557.301270	665.050903	186.404877	626.173767	479.288879	242.706573	584.600464	278.952759	193.039444	636.714478	70.576431	245.621506	589.989563	53.708866	286.464233	763.204834	56.260670	288.606567
362	3.61000000	492.383759	1379.309814	595.274841	392.756500	1357.012207	262.690918	411.430176	1421.728271	438.082489	565.079163	1304.037476	404.541779	478.676575	1082.155884	688.145691	368.720703	1064.442627	160.612778	630.356262	919.546661	648.855103	559.627563	983.685730	222.922791	571.900330	887.635010	535.839661	525.258789	895.597534	279.468933	383.795258	906.412781	478.814331	369.734253	901.500305	395.773010	376.764755	903.956543	437.293671	384.545990	1128.476929	443.409332	610.361206	1155.980957	383.937775	491.888855	616.445068	602.067078	463.937347	438.833466	518.251953	355.308228	261.959259	568.760193	292.619141	75.648376	495.828583	246.563797	69.165840	444.685730	412.801849	40.342194	469.721313	561.133240	664.133240	185.173599	628.805725	478.307739	242.328583	586.819153	277.972504	192.935760	638.150574	69.694656	246.119247	591.351379	52.899971	286.948029	764.559570	55.181454	289.263947
363	3.62000000	496.268219	1379.894653	593.123047	396.991089	1356.925049	260.590210	415.588318	1422.038330	435.876038	569.470459	1304.604736	402.529510	482.636139	1082.766724	686.729187	373.050171	1063.896240	159.578415	635.973419	922.075256	646.637360	563.930756	982.925690	221.872749	576.209167	887.791748	534.240417	530.010559	895.748901	277.741943	388.167816	906.783936	476.873840	374.278870	902.037598	393.768158	381.223343	904.410767	435.320999	389.119202	1128.792847	441.441162	615.035156	1156.541382	382.055359	496.005310	616.627991	600.640991	467.691406	438.883392	517.436523	357.690887	262.919159	568.224487	293.277496	77.130501	495.808350	247.187836	71.008240	444.642609	413.062286	40.354931	469.619171	565.166931	663.542480	183.882858	631.514404	477.551239	241.816025	588.991333	277.219086	192.696686	639.379456	68.978493	246.511658	592.480347	52.278427	287.313202	765.673645	54.271587	289.785370
364	3.63000000	500.179443	1380.624390	590.911316	401.274597	1357.029907	258.435974	419.793121	1422.496216	433.614746	573.892151	1305.311157	400.462860	486.722046	1083.650024	685.330750	377.386383	1063.562500	158.483093	641.555420	924.765411	644.549103	568.215240	982.339478	220.815826	580.570923	888.148071	532.606995	534.786194	896.082520	275.986328	392.621979	907.311584	474.963379	378.884979	902.706421	391.791626	385.753479	905.009003	433.377502	393.714539	1129.262085	439.445312	619.730164	1157.246826	380.108246	500.367554	617.003784	599.269104	471.845123	439.061554	516.741516	360.305542	264.106934	567.748230	294.066223	78.893410	495.820496	247.960281	73.210350	444.619446	413.396942	40.366913	469.543488	569.358765	663.278320	182.542130	634.242493	477.009033	241.178406	591.082275	276.683075	192.330872	640.393188	68.419456	246.800034	593.373596	51.834435	287.560883	766.545715	53.526531	290.173767
365	3.64000000	504.110992	1381.498779	588.641235	405.609985	1357.337280	256.229034	424.041107	1423.100830	431.300354	578.339600	1306.154297	398.346161	490.886078	1084.811646	683.932556	381.726196	1063.460693	157.313736	647.020813	927.582886	642.573669	572.481964	981.966888	219.744141	584.979004	888.712769	530.940063	539.580994	896.598145	274.203766	397.151581	907.999512	473.085938	383.546997	903.506592	389.848206	390.349289	905.753052	431.467072	398.324432	1129.883911	437.420197	624.438843	1158.094360	378.102081	504.989807	617.585693	597.973572	476.450531	439.369415	516.203308	363.181854	265.532227	567.355164	295.009308	80.954269	495.879547	248.907959	75.800850	444.630127	413.815521	40.369446	469.499969	573.633972	663.313354	181.164017	636.920166	476.658844	240.434021	593.053650	276.343506	191.857071	641.194275	68.003693	246.990997	594.041504	51.549953	287.699799	767.187988	52.936478	290.438385
366	3.65000000	508.056213	1382.513428	586.315186	410.000031	1357.851318	253.970459	428.328674	1423.847412	428.934967	582.808350	1307.127930	396.184570	495.074188	1086.247681	682.518311	386.065186	1063.602783	156.057495	652.297699	930.490082	640.696472	576.731689	981.842438	218.646706	589.426880	889.486511	529.239319	544.390991	897.288696	272.396149	401.749512	908.846069	471.241882	388.258972	904.434082	387.940735	395.004242	906.640076	429.591309	402.942139	1130.653076	435.363586	629.154663	1159.076904	376.043701	509.887817	618.378235	596.774536	481.561676	439.803101	515.857544	366.355560	267.193481	567.066467	296.136627	83.323341	496.000946	250.062515	78.801323	444.691010	414.326904	40.352505	469.493011	577.888611	663.595886	179.762360	639.471008	476.469360	239.608612	594.864868	276.170715	191.302887	641.793762	67.713493	247.095932	594.504639	51.400742	287.745605	767.623291	52.487076	290.593781
